<?xml version="1.0" encoding="utf-8"?>
<!-- Generator: Adobe Illustrator 28.0.0, SVG Export Plug-In . SVG Version: 6.00 Build 0)  -->
<svg version="1.1" id="Layer_1" xmlns="http://www.w3.org/2000/svg" xmlns:xlink="http://www.w3.org/1999/xlink" x="0px" y="0px"
	 viewBox="0 0 1920 1080" style="enable-background:new 0 0 1920 1080;" xml:space="preserve">
<style type="text/css">
	.st0{fill:#FFFFFF;}
</style>
<g>
	<g>
		<path class="st0" d="M605.51,570.51c8.09,2.65,14.66,7.54,19.65,14.63c4.03,5.73,6.77,11.93,8.22,18.61
			c1.47,6.68,2.19,13.04,2.19,19.09c0,15.33-3.08,28.32-9.23,38.96c-8.35,14.36-21.25,21.52-38.68,21.52h-49.73V568.01h49.73
			C594.81,568.11,600.76,568.94,605.51,570.51 M561.34,588.04v75.26h22.26c11.4,0,19.33-5.59,23.82-16.81
			c2.45-6.17,3.67-13.49,3.67-22.01c0-11.72-1.84-20.71-5.52-27.01c-3.69-6.28-11.01-9.42-21.98-9.42H561.34z"/>
		<path class="st0" d="M671.58,568.01h27.25l40.79,115.32h-26.11l-7.61-23.71h-42.47l-7.82,23.71h-25.2L671.58,568.01z
			 M669.98,639.75h29.54l-14.57-45.38L669.98,639.75z"/>
		<polygon class="st0" points="745.89,568.01 771.16,568.01 816.94,648.43 816.94,568.01 839.39,568.01 839.39,683.33 815.3,683.33 
			768.35,601.51 768.35,683.33 745.89,683.33 		"/>
		<path class="st0" d="M865,580.06c9.3-9.5,21.11-14.23,35.46-14.23c19.19,0,33.22,6.37,42.11,19.08c4.9,7.14,7.54,14.32,7.89,21.51
			h-24.09c-1.55-5.52-3.5-9.7-5.9-12.51c-4.29-5-10.66-7.52-19.09-7.52c-8.58,0-15.35,3.55-20.31,10.6
			c-4.96,7.09-7.43,17.07-7.43,30.01s2.62,22.63,7.84,29.05c5.23,6.45,11.88,9.67,19.94,9.67c8.26,0,14.56-2.77,18.9-8.29
			c2.41-2.97,4.39-7.44,5.98-13.38h23.94c-2.07,12.57-7.33,22.79-15.83,30.67c-8.49,7.88-19.36,11.81-32.63,11.81
			c-16.4,0-29.31-5.32-38.7-15.96c-9.39-10.7-14.08-25.35-14.08-43.96C848.98,606.47,854.32,590.95,865,580.06"/>
		<polygon class="st0" points="1045.72,588.42 985.95,588.42 985.95,612.91 1040.7,612.91 1040.7,632.95 985.95,632.95 
			985.95,662.59 1048.54,662.59 1048.54,683.32 962.41,683.32 962.41,568.01 1045.72,568.01 		"/>
	</g>
	<g>
		<path class="st0" d="M1068.82,619.95c0.47,3.43,1.45,5.99,2.84,7.69c2.61,3.09,7.05,4.61,13.36,4.61c3.78,0,6.84-0.4,9.18-1.2
			c4.47-1.56,6.7-4.46,6.7-8.7c0-2.47-1.09-4.38-3.28-5.74c-2.19-1.32-5.66-2.49-10.4-3.51l-8.11-1.78
			c-7.98-1.77-13.46-3.67-16.44-5.75c-5.07-3.46-7.58-8.87-7.58-16.24c0-6.69,2.46-12.28,7.42-16.72c4.93-4.44,12.2-6.67,21.76-6.67
			c8,0,14.82,2.09,20.46,6.28c5.67,4.2,8.61,10.27,8.89,18.23h-15.04c-0.3-4.5-2.31-7.7-6.07-9.61c-2.48-1.23-5.6-1.87-9.33-1.87
			c-4.14,0-7.44,0.81-9.92,2.43c-2.45,1.64-3.68,3.92-3.68,6.83c0,2.68,1.22,4.67,3.64,6c1.58,0.87,4.9,1.92,9.96,3.1l13.16,3.1
			c5.77,1.36,10.09,3.16,12.96,5.43c4.47,3.53,6.69,8.63,6.69,15.31c0,6.84-2.65,12.53-7.92,17.06c-5.31,4.53-12.78,6.79-22.44,6.79
			c-9.88,0-17.63-2.24-23.28-6.69c-5.66-4.46-8.48-10.59-8.48-18.4H1068.82z"/>
		<polygon class="st0" points="1173.95,568.13 1173.95,581.4 1151.54,581.4 1151.54,643.11 1135.78,643.11 1135.78,581.4 
			1113.23,581.4 1113.23,568.13 		"/>
		<path class="st0" d="M1177.91,568.13h15.92v46.04c0,5.15,0.62,8.9,1.82,11.27c1.89,4.21,6.02,6.32,12.37,6.32
			c6.32,0,10.41-2.11,12.31-6.32c1.22-2.37,1.82-6.12,1.82-11.27v-46.04h15.92v46.08c0,7.95-1.24,14.17-3.72,18.61
			c-4.59,8.15-13.36,12.22-26.32,12.22c-12.97,0-21.77-4.07-26.4-12.22c-2.47-4.44-3.71-10.66-3.71-18.61V568.13z"/>
		<path class="st0" d="M1291.82,569.77c5.26,1.73,9.53,4.9,12.78,9.5c2.6,3.73,4.41,7.77,5.34,12.1c0.96,4.33,1.44,8.46,1.44,12.41
			c0,9.96-2.01,18.41-6.01,25.33c-5.42,9.32-13.8,13.99-25.15,13.99h-32.31v-74.98h32.31
			C1284.87,568.2,1288.75,568.76,1291.82,569.77 M1263.13,581.15v48.92h14.47c7.38,0,12.54-3.63,15.46-10.93
			c1.59-4.01,2.42-8.78,2.42-14.3c0-7.63-1.21-13.48-3.6-17.57c-2.4-4.08-7.16-6.12-14.27-6.12H1263.13z"/>
		<rect x="1318.93" y="568.13" class="st0" width="15.58" height="74.98"/>
		<path class="st0" d="M1401.65,636.43c-5.66,5.82-13.84,8.75-24.57,8.75c-10.72,0-18.88-2.93-24.55-8.75
			c-7.59-7.14-11.39-17.46-11.39-30.93c0-13.73,3.8-24.03,11.39-30.9c5.67-5.84,13.83-8.76,24.55-8.76
			c10.72,0,18.91,2.92,24.57,8.76c7.56,6.87,11.35,17.17,11.35,30.9C1413,618.97,1409.21,629.29,1401.65,636.43 M1391.86,625.05
			c3.65-4.57,5.48-11.09,5.48-19.54c0-8.39-1.84-14.89-5.48-19.48c-3.64-4.6-8.56-6.9-14.78-6.9c-6.2,0-11.14,2.27-14.84,6.85
			c-3.69,4.58-5.54,11.1-5.54,19.52c0,8.45,1.85,14.97,5.54,19.54c3.7,4.57,8.65,6.86,14.84,6.86
			C1383.31,631.9,1388.23,629.61,1391.86,625.05"/>
	</g>
	<path class="st0" d="M533.32,426.02h-81.29v33.32h74.48v27.22h-74.48v40.34h85.12v28.2H420V398.27h113.32V426.02z M653.51,447.21
		c-2.48-10.71-8.54-18.19-18.19-22.44c-5.4-2.36-11.39-3.52-17.98-3.52c-12.65,0-23.01,4.75-31.13,14.28
		c-8.13,9.52-12.17,23.85-12.17,42.97c0,19.27,4.39,32.89,13.19,40.89c8.8,8.01,18.79,12,30,12c11.01,0,20.02-3.14,27.01-9.47
		c7.03-6.29,11.37-14.58,13.01-24.81h-36.3v-26.16h65.33v84.17h-21.69l-3.3-19.58c-6.33,7.43-11.99,12.64-17.06,15.69
		c-8.65,5.29-19.26,7.94-31.9,7.94c-20.78,0-37.8-7.21-51.08-21.6c-13.84-14.45-20.75-34.23-20.75-59.35
		c0-25.37,6.98-45.72,20.97-61.04c13.97-15.29,32.45-22.96,55.45-22.96c19.92,0,35.93,5.05,48.04,15.15
		c12.1,10.11,19.03,22.71,20.79,37.83H653.51z M701.23,398.27h33.3v96.34c0,10.76,1.29,18.62,3.83,23.59
		c3.95,8.79,12.58,13.19,25.86,13.19c13.23,0,21.81-4.4,25.78-13.19c2.55-4.97,3.82-12.83,3.82-23.59v-96.34h33.3v96.4
		c0,16.68-2.59,29.66-7.76,38.96c-9.62,17.02-28,25.54-55.14,25.54c-27.12,0-45.52-8.53-55.23-25.54
		c-5.17-9.29-7.76-22.28-7.76-38.96V398.27z M945.63,402.3c5.77,2.48,10.67,6.15,14.68,10.97c3.33,3.96,5.94,8.38,7.89,13.19
		c1.94,4.81,2.92,10.33,2.92,16.5c0,7.44-1.89,14.76-5.65,21.97c-3.76,7.2-9.95,12.28-18.63,15.25c7.25,2.93,12.37,7.04,15.39,12.42
		c3.01,5.35,4.52,13.52,4.52,24.53v10.52c0,7.17,0.29,12.02,0.86,14.59c0.87,4.05,2.89,7.02,6.05,8.93v3.94h-36.18
		c-0.99-3.48-1.69-6.27-2.13-8.39c-0.86-4.41-1.3-8.92-1.36-13.52l-0.23-14.58c-0.13-10-1.86-16.67-5.17-19.99
		c-3.32-3.35-9.56-5-18.69-5h-32v61.49h-32.03V398.27h75C931.62,398.47,939.86,399.83,945.63,402.3 M877.89,425.51v42.13h35.26
		c7.03,0,12.27-0.85,15.78-2.56c6.19-2.98,9.31-8.86,9.31-17.66c0-9.51-3-15.89-9.02-19.15c-3.35-1.83-8.41-2.76-15.15-2.76H877.89z
		 M1086.66,402.3c5.79,2.48,10.68,6.15,14.69,10.97c3.32,3.96,5.94,8.38,7.89,13.19c1.94,4.81,2.92,10.33,2.92,16.5
		c0,7.44-1.9,14.76-5.65,21.97c-3.77,7.2-9.99,12.28-18.61,15.25c7.22,2.93,12.34,7.04,15.35,12.42c3.03,5.35,4.54,13.52,4.54,24.53
		v10.52c0,7.17,0.3,12.02,0.86,14.59c0.88,4.05,2.86,7.02,6.06,8.93v3.94h-36.18c-1-3.48-1.7-6.27-2.14-8.39
		c-0.86-4.41-1.3-8.92-1.38-13.52l-0.2-14.58c-0.14-10-1.87-16.67-5.2-19.99c-3.33-3.35-9.55-5-18.66-5h-32.01v61.49H986.9V398.27
		h75.02C1072.64,398.47,1080.91,399.83,1086.66,402.3 M1018.93,425.51v42.13h35.28c7,0,12.26-0.85,15.76-2.56
		c6.2-2.98,9.29-8.86,9.29-17.66c0-9.51-2.99-15.89-9-19.15c-3.36-1.83-8.42-2.76-15.15-2.76H1018.93z M1247.99,541.18
		c-11.87,12.19-29,18.3-51.41,18.3c-22.41,0-39.55-6.11-51.38-18.3c-15.91-14.98-23.86-36.55-23.86-64.71
		c0-28.73,7.95-50.28,23.86-64.71c11.83-12.19,28.97-18.3,51.38-18.3c22.41,0,39.55,6.11,51.41,18.3
		c15.81,14.43,23.71,35.99,23.71,64.71C1271.7,504.63,1263.8,526.2,1247.99,541.18 M1227.5,517.34
		c7.61-9.59,11.44-23.19,11.44-40.87c0-17.58-3.82-31.19-11.44-40.82c-7.63-9.61-17.94-14.41-30.93-14.41
		c-12.98,0-23.34,4.78-31.07,14.38c-7.73,9.56-11.59,23.2-11.59,40.85c0,17.68,3.86,31.28,11.59,40.87
		c7.73,9.57,18.09,14.37,31.07,14.37C1209.56,531.71,1219.87,526.91,1227.5,517.34 M1444.5,398.27h-37.1l-45.92,128.64h-44.93
		V398.27h-32.76v156.84h101.93l10.61-32.24h57.79l10.34,32.24H1500L1444.5,398.27z M1405.25,495.83l20.37-61.72l19.81,61.72H1405.25
		z"/>
</g>
</svg>
